# xmcd
#
# Track frame offsets:
#  150
#  18467
#  39680
#  67695
#  86223
#  104062
#  119242
#  136756
#  158151
#  178263
#  196353
#  219572
#  233295
#  248720
#  282332
#
# Disc length: 4236 seconds
#
# Revision: 0
# Processed by: cddbd v1.5.1PL2 Copyright (c) Steve Scherf et al.
# Submitted via: Collectorz.com_Music_Collector 6.9
#
DISCID=d8108a0f
DTITLE=Rob Tognoni Band - Noise In Belgiu/Belga (Live)
DYEAR=1900
DGENRE=Blues-Rock
TTITLE0=Everlasting Lovin' Boy
TTITLE1=Dark Angel
TTITLE2=Crossword Blues
TTITLE3=Jim Beam Blues
TTITLE4=Sunburn
TTITLE5=Keep Your Head Above Water
TTITLE6=Lil' Melody
TTITLE7=I Like To Dress Like Batman
TTITLE8=Don't Be Too Hard On Me
TTITLE9=The Sinner
TTITLE10=Itty Bitty Mama
TTITLE11=Bad Girl
TTITLE12=Black Is White
TTITLE13=My Acid Is Kickin' In
TTITLE14=Data track
EXTD=
EXTT0=
EXTT1=
EXTT2=
EXTT3=
EXTT4=
EXTT5=
EXTT6=
EXTT7=
EXTT8=
EXTT9=
EXTT10=
EXTT11=
EXTT12=
EXTT13=
EXTT14=
PLAYORDER=
